o Cone.001
v 0.000000 0.000000 -1.000000
v 1.000000 0.000000 0.000000
v 0.000000 0.000000 1.000000
v -1.000000 0.000000 0.000000
v 0.000000 1.264056 0.000000
v 0.000000 -1.264056 0.000000
vn 0.6171 0.4882 -0.6171
vn 0.6171 0.4882 0.6171
vn -0.6171 0.4882 0.6171
vn -0.6171 0.4882 -0.6171
vn 0.6171 -0.4882 -0.6171
vn 0.6171 -0.4882 0.6171
vn -0.6171 -0.4882 0.6171
vn -0.6171 -0.4882 -0.6171
vt 0.790973 0.431779
vt 0.508320 1.014493
vt 0.222714 0.433221
vt 0.790619 0.430691
vt 0.507966 1.013404
vt 0.222360 0.432132
vt 0.791478 0.431132
vt 0.508051 1.013210
vt 0.223421 0.431719
vt 0.791462 0.430229
vt 0.508808 1.012943
vt 0.223202 0.431671
s 0
usemtl Material.001
f 1/1/1 5/2/1 2/3/1
f 2/4/2 5/5/2 3/6/2
f 3/7/3 5/8/3 4/9/3
f 4/10/4 5/11/4 1/12/4
f 1/1/5 2/3/5 6/2/5
f 2/4/6 3/6/6 6/5/6
f 3/7/7 4/9/7 6/8/7
f 4/10/8 1/12/8 6/11/8
