o Cone
v 0.000000 -1.000000 -1.000000
v 1.000000 -1.000000 0.000000
v 0.000000 -1.000000 1.000000
v -1.000000 -1.000000 0.000000
v 0.000000 1.000000 0.000000
vn 0.6667 0.3333 -0.6667
vn 0.6667 0.3333 0.6667
vn -0.0000 -1.0000 -0.0000
vn -0.6667 0.3333 0.6667
vn -0.6667 0.3333 -0.6667
vt 0.778112 0.342737
vt 0.502662 1.169089
vt 0.227211 0.342737
vt 0.779279 0.343096
vt 0.502758 1.169091
vt 0.228378 0.342383
vt 0.778957 0.893569
vt 0.228056 0.893569
vt 0.228056 0.342668
vt 0.778957 0.342668
vt 0.781792 0.344518
vt 0.499512 1.168561
vt 0.230909 0.339958
vt 0.780676 0.341557
vt 0.505226 1.167909
vt 0.229775 0.341557
s 0
usemtl Material.001
f 1/1/1 5/2/1 2/3/1
f 2/4/2 5/5/2 3/6/2
f 1/7/3 2/8/3 3/9/3 4/10/3
f 3/11/4 5/12/4 4/13/4
f 4/14/5 5/15/5 1/16/5
