mtllib Cylinder.mtl
o Cylinder
v 0.000000 -0.834601 -0.834601
v 0.000000 0.834601 -0.834601
v 0.162823 -0.834601 -0.818565
v 0.162823 0.834601 -0.818565
v 0.319388 -0.834601 -0.771071
v 0.319388 0.834601 -0.771071
v 0.463680 -0.834601 -0.693946
v 0.463680 0.834601 -0.693946
v 0.590152 -0.834601 -0.590152
v 0.590152 0.834601 -0.590152
v 0.693946 -0.834601 -0.463680
v 0.693946 0.834601 -0.463680
v 0.771071 -0.834601 -0.319388
v 0.771071 0.834601 -0.319388
v 0.818565 -0.834601 -0.162823
v 0.818565 0.834601 -0.162823
v 0.834601 -0.834601 0.000000
v 0.834601 0.834601 0.000000
v 0.818565 -0.834601 0.162823
v 0.818565 0.834601 0.162823
v 0.771071 -0.834601 0.319388
v 0.771071 0.834601 0.319388
v 0.693946 -0.834601 0.463680
v 0.693946 0.834601 0.463680
v 0.590152 -0.834601 0.590152
v 0.590152 0.834601 0.590152
v 0.463680 -0.834601 0.693946
v 0.463680 0.834601 0.693946
v 0.319388 -0.834601 0.771071
v 0.319388 0.834601 0.771071
v 0.162823 -0.834601 0.818565
v 0.162823 0.834601 0.818565
v 0.000000 -0.834601 0.834601
v 0.000000 0.834601 0.834601
v -0.162823 -0.834601 0.818565
v -0.162823 0.834601 0.818565
v -0.319388 -0.834601 0.771071
v -0.319388 0.834601 0.771071
v -0.463680 -0.834601 0.693946
v -0.463680 0.834601 0.693946
v -0.590152 -0.834601 0.590152
v -0.590152 0.834601 0.590152
v -0.693946 -0.834601 0.463680
v -0.693946 0.834601 0.463680
v -0.771071 -0.834601 0.319388
v -0.771071 0.834601 0.319388
v -0.818565 -0.834601 0.162823
v -0.818565 0.834601 0.162823
v -0.834601 -0.834601 0.000000
v -0.834601 0.834601 0.000000
v -0.818565 -0.834601 -0.162823
v -0.818565 0.834601 -0.162823
v -0.771071 -0.834601 -0.319388
v -0.771071 0.834601 -0.319388
v -0.693946 -0.834601 -0.463680
v -0.693946 0.834601 -0.463680
v -0.590152 -0.834601 -0.590152
v -0.590152 0.834601 -0.590152
v -0.463680 -0.834601 -0.693946
v -0.463680 0.834601 -0.693946
v -0.319388 -0.834601 -0.771071
v -0.319388 0.834601 -0.771071
v -0.162823 -0.834601 -0.818565
v -0.162823 0.834601 -0.818565
vn 0.0980 -0.0000 -0.9952
vn 0.2903 -0.0000 -0.9569
vn 0.4714 -0.0000 -0.8819
vn 0.6344 -0.0000 -0.7730
vn 0.7730 -0.0000 -0.6344
vn 0.8819 -0.0000 -0.4714
vn 0.9569 -0.0000 -0.2903
vn 0.9952 -0.0000 -0.0980
vn 0.9952 -0.0000 0.0980
vn 0.9569 -0.0000 0.2903
vn 0.8819 -0.0000 0.4714
vn 0.7730 -0.0000 0.6344
vn 0.6344 -0.0000 0.7730
vn 0.4714 -0.0000 0.8819
vn 0.2903 -0.0000 0.9569
vn 0.0980 -0.0000 0.9952
vn -0.0980 -0.0000 0.9952
vn -0.2903 -0.0000 0.9569
vn -0.4714 -0.0000 0.8819
vn -0.6344 -0.0000 0.7730
vn -0.7730 -0.0000 0.6344
vn -0.8819 -0.0000 0.4714
vn -0.9569 -0.0000 0.2903
vn -0.9952 -0.0000 0.0980
vn -0.9952 -0.0000 -0.0980
vn -0.9569 -0.0000 -0.2903
vn -0.8819 -0.0000 -0.4714
vn -0.7730 -0.0000 -0.6344
vn -0.6344 -0.0000 -0.7730
vn -0.4714 -0.0000 -0.8819
vn -0.0000 1.0000 -0.0000
vn -0.2903 -0.0000 -0.9569
vn -0.0980 -0.0000 -0.9952
vn -0.0000 -1.0000 -0.0000
vt 0.813428 0.432604
vt 0.813428 0.822429
vt 0.775219 0.822429
vt 0.775219 0.432604
vt 0.737009 0.822429
vt 0.737009 0.432605
vt 0.698800 0.822429
vt 0.698800 0.432605
vt 0.660590 0.822429
vt 0.660590 0.432604
vt 0.622381 0.822429
vt 0.622381 0.432604
vt 0.584172 0.822429
vt 0.584172 0.432604
vt 0.545962 0.822429
vt 0.545962 0.432604
vt 0.507753 0.822429
vt 0.507753 0.432604
vt 0.469543 0.822429
vt 0.469543 0.432605
vt 0.431334 0.822429
vt 0.431334 0.432605
vt 0.393124 0.822429
vt 0.393124 0.432605
vt 0.354915 0.822429
vt 0.354915 0.432604
vt 0.316705 0.822429
vt 0.316705 0.432605
vt 0.278496 0.822429
vt 0.278496 0.432604
vt 0.240286 0.822429
vt 0.240286 0.432605
vt 0.202077 0.822429
vt 0.202077 0.432605
vt 0.201776 0.821654
vt 0.201776 0.431829
vt 0.239986 0.431829
vt 0.239986 0.821654
vt 0.278195 0.431829
vt 0.278195 0.821654
vt 0.316405 0.431829
vt 0.316405 0.821654
vt 0.354614 0.431829
vt 0.354614 0.821654
vt 0.392824 0.431829
vt 0.392824 0.821654
vt 0.431033 0.431830
vt 0.431033 0.821654
vt 0.469242 0.431829
vt 0.469243 0.821654
vt 0.507452 0.431829
vt 0.507452 0.821654
vt 0.545661 0.431829
vt 0.545661 0.821654
vt 0.583871 0.431829
vt 0.583871 0.821654
vt 0.622080 0.431829
vt 0.622080 0.821654
vt 0.660290 0.431829
vt 0.660290 0.821654
vt 0.698499 0.431829
vt 0.698499 0.821654
vt 0.736709 0.431829
vt 0.736709 0.821654
vt 0.336941 0.534922
vt 0.358170 0.503152
vt 0.385188 0.476134
vt 0.416958 0.454906
vt 0.452259 0.440284
vt 0.489734 0.432830
vt 0.527943 0.432830
vt 0.565419 0.440284
vt 0.600720 0.454906
vt 0.632490 0.476134
vt 0.659508 0.503152
vt 0.680736 0.534922
vt 0.695358 0.570223
vt 0.702812 0.607699
vt 0.702812 0.645908
vt 0.695358 0.683383
vt 0.680736 0.718684
vt 0.659508 0.750454
vt 0.632490 0.777473
vt 0.600720 0.798701
vt 0.565419 0.813323
vt 0.527943 0.820777
vt 0.489734 0.820777
vt 0.452259 0.813323
vt 0.416958 0.798701
vt 0.385188 0.777473
vt 0.358169 0.750454
vt 0.336941 0.718684
vt 0.322319 0.683383
vt 0.314865 0.645908
vt 0.314865 0.607699
vt 0.322319 0.570223
vt 0.774918 0.431829
vt 0.774918 0.821654
vt 0.813128 0.431829
vt 0.813128 0.821654
vt 0.452232 0.440284
vt 0.489708 0.432830
vt 0.527917 0.432830
vt 0.565392 0.440284
vt 0.600693 0.454906
vt 0.632463 0.476134
vt 0.659482 0.503152
vt 0.680710 0.534922
vt 0.695332 0.570223
vt 0.702786 0.607699
vt 0.702786 0.645908
vt 0.695332 0.683383
vt 0.680710 0.718684
vt 0.659482 0.750454
vt 0.632463 0.777473
vt 0.600693 0.798701
vt 0.565392 0.813323
vt 0.527917 0.820777
vt 0.489708 0.820777
vt 0.452232 0.813323
vt 0.416931 0.798701
vt 0.385161 0.777473
vt 0.358143 0.750454
vt 0.336915 0.718684
vt 0.322293 0.683383
vt 0.314839 0.645908
vt 0.314839 0.607699
vt 0.322293 0.570223
vt 0.336915 0.534922
vt 0.358143 0.503152
vt 0.385161 0.476134
vt 0.416931 0.454906
s 0
usemtl Material.001
f 1/1/1 2/2/1 4/3/1 3/4/1
f 3/4/2 4/3/2 6/5/2 5/6/2
f 5/6/3 6/5/3 8/7/3 7/8/3
f 7/8/4 8/7/4 10/9/4 9/10/4
f 9/10/5 10/9/5 12/11/5 11/12/5
f 11/12/6 12/11/6 14/13/6 13/14/6
f 13/14/7 14/13/7 16/15/7 15/16/7
f 15/16/8 16/15/8 18/17/8 17/18/8
f 17/18/9 18/17/9 20/19/9 19/20/9
f 19/20/10 20/19/10 22/21/10 21/22/10
f 21/22/11 22/21/11 24/23/11 23/24/11
f 23/24/12 24/23/12 26/25/12 25/26/12
f 25/26/13 26/25/13 28/27/13 27/28/13
f 27/28/14 28/27/14 30/29/14 29/30/14
f 29/30/15 30/29/15 32/31/15 31/32/15
f 31/32/16 32/31/16 34/33/16 33/34/16
f 33/35/17 34/36/17 36/37/17 35/38/17
f 35/38/18 36/37/18 38/39/18 37/40/18
f 37/40/19 38/39/19 40/41/19 39/42/19
f 39/42/20 40/41/20 42/43/20 41/44/20
f 41/44/21 42/43/21 44/45/21 43/46/21
f 43/46/22 44/45/22 46/47/22 45/48/22
f 45/48/23 46/47/23 48/49/23 47/50/23
f 47/50/24 48/49/24 50/51/24 49/52/24
f 49/52/25 50/51/25 52/53/25 51/54/25
f 51/54/26 52/53/26 54/55/26 53/56/26
f 53/56/27 54/55/27 56/57/27 55/58/27
f 55/58/28 56/57/28 58/59/28 57/60/28
f 57/60/29 58/59/29 60/61/29 59/62/29
f 59/62/30 60/61/30 62/63/30 61/64/30
f 4/65/31 2/66/31 64/67/31 62/68/31 60/69/31 58/70/31 56/71/31 54/72/31 52/73/31 50/74/31 48/75/31 46/76/31 44/77/31 42/78/31 40/79/31 38/80/31 36/81/31 34/82/31 32/83/31 30/84/31 28/85/31 26/86/31 24/87/31 22/88/31 20/89/31 18/90/31 16/91/31 14/92/31 12/93/31 10/94/31 8/95/31 6/96/31
f 61/64/32 62/63/32 64/97/32 63/98/32
f 63/98/33 64/97/33 2/99/33 1/100/33
f 1/101/34 3/102/34 5/103/34 7/104/34 9/105/34 11/106/34 13/107/34 15/108/34 17/109/34 19/110/34 21/111/34 23/112/34 25/113/34 27/114/34 29/115/34 31/116/34 33/117/34 35/118/34 37/119/34 39/120/34 41/121/34 43/122/34 45/123/34 47/124/34 49/125/34 51/126/34 53/127/34 55/128/34 57/129/34 59/130/34 61/131/34 63/132/34
